<svg xmlns="http://www.w3.org/2000/svg" width="1000" height="760" viewBox="0 0 1000 760">
<defs>
  <linearGradient id="a" x1="0" x2="1" y1="0" y2="1"><stop stop-color="#00C4CC"/><stop offset=".48" stop-color="#2A7FFF"/><stop offset="1" stop-color="#7D5CFF"/></linearGradient>
  <linearGradient id="b" x1="0" x2="1" y1="0" y2="1"><stop stop-color="#FF6EC7"/><stop offset="1" stop-color="#FFD166"/></linearGradient>
  <linearGradient id="c" x1="0" x2="1" y1="0" y2="1"><stop stop-color="#7CE7C7"/><stop offset="1" stop-color="#00C4CC"/></linearGradient>
  <filter id="shadow"><feDropShadow dx="0" dy="30" stdDeviation="24" flood-color="#27346e" flood-opacity=".22"/></filter>
</defs>
<rect width="1000" height="760" rx="64" fill="#F7FAFF"/>
<path d="M0 170 C170 40 220 210 360 90 C520 -48 675 35 780 165 C890 300 1030 200 1000 0 L1000 760 L0 760 Z" fill="#EEF2FF"/>
<circle cx="145" cy="105" r="90" fill="#D9FBFF"/>
<circle cx="860" cy="175" r="120" fill="#EEE0FF"/>
<g filter="url(#shadow)" transform="rotate(-7 255 350)">
  <rect x="95" y="160" width="325" height="430" rx="48" fill="url(#a)"/>
  <circle cx="350" cy="230" r="88" fill="#fff" opacity=".18"/>
  <path d="M145 430 C220 330 276 490 355 365" stroke="#fff" stroke-width="22" fill="none" stroke-linecap="round" opacity=".36"/>
  <text x="138" y="250" font-family="Arial" font-weight="900" font-size="38" fill="#fff">AI COVER</text>
  <text x="138" y="332" font-family="Arial" font-weight="900" font-size="74" fill="#fff">3 MIN</text>
  <text x="138" y="392" font-family="Arial" font-weight="900" font-size="42" fill="#fff">DESIGN</text>
  <rect x="138" y="488" width="170" height="22" rx="11" fill="#fff" opacity=".65"/>
</g>
<g filter="url(#shadow)" transform="rotate(9 650 330)">
  <rect x="560" y="105" width="310" height="400" rx="44" fill="url(#b)"/>
  <text x="600" y="210" font-family="Arial" font-weight="900" font-size="38" fill="#fff">MOOD</text>
  <text x="600" y="270" font-family="Arial" font-weight="900" font-size="58" fill="#fff">BOARD</text>
  <circle cx="640" cy="355" r="36" fill="#fff" opacity=".55"/>
  <circle cx="715" cy="355" r="36" fill="#fff" opacity=".35"/>
  <circle cx="790" cy="355" r="36" fill="#fff" opacity=".25"/>
</g>
<g filter="url(#shadow)">
  <rect x="370" y="455" width="290" height="190" rx="42" fill="url(#c)"/>
  <text x="410" y="535" font-family="Arial" font-weight="900" font-size="36" fill="#fff">TEMPLATE</text>
  <rect x="410" y="570" width="170" height="18" rx="9" fill="#fff" opacity=".56"/>
</g>
<circle cx="110" cy="640" r="22" fill="#FF6EC7"/><circle cx="905" cy="560" r="18" fill="#00C4CC"/><circle cx="500" cy="95" r="14" fill="#FFD166"/>
</svg>