<svg xmlns="http://www.w3.org/2000/svg" width="900" height="520" viewBox="0 0 900 520">
<defs>
<linearGradient id="a" x1="0" x2="1" y1="0" y2="1"><stop stop-color="#00C4CC"/><stop offset="1" stop-color="#7D5CFF"/></linearGradient>
<linearGradient id="b" x1="0" x2="1" y1="0" y2="1"><stop stop-color="#FF6B6B"/><stop offset="1" stop-color="#FFD166"/></linearGradient>
<filter id="s"><feDropShadow dx="0" dy="22" stdDeviation="20" flood-color="#26366F" flood-opacity=".18"/></filter>
</defs>
<rect width="900" height="520" rx="46" fill="#F8FBFF"/>
<circle cx="160" cy="110" r="115" fill="#DBFBFF"/><circle cx="740" cy="110" r="150" fill="#EEE0FF"/>
<rect x="118" y="332" width="664" height="48" rx="24" fill="#D9E5FF"/>
<g filter="url(#s)">
<rect x="182" y="108" width="396" height="240" rx="32" fill="#1F2937"/>
<rect x="212" y="138" width="336" height="180" rx="22" fill="url(#a)"/>
<text x="246" y="198" font-size="30" font-family="Arial" font-weight="900" fill="white">DRAFT</text>
<text x="246" y="252" font-size="42" font-family="Arial" font-weight="900" fill="white">封面未完成</text>
<rect x="246" y="278" width="176" height="18" rx="9" fill="white" opacity=".38"/>
</g>
<g filter="url(#s)">
<rect x="620" y="128" width="156" height="122" rx="22" fill="#FFF4D6" transform="rotate(-8 620 128)"/>
<text x="645" y="182" font-size="28" font-family="Arial" font-weight="900" fill="#F59E0B" transform="rotate(-8 620 128)">灵感值 0%</text>
</g>
<g filter="url(#s)">
<circle cx="675" cy="325" r="64" fill="white"/>
<circle cx="675" cy="325" r="36" fill="#8B5E34"/>
<circle cx="675" cy="325" r="22" fill="#6B3F24"/>
</g>
<rect x="276" y="395" width="250" height="14" rx="7" fill="url(#b)" transform="rotate(-12 276 395)"/>
</svg>