<svg xmlns="http://www.w3.org/2000/svg" width="900" height="620" viewBox="0 0 900 620">
<defs>
  <linearGradient id="g1" x1="0" x2="1" y1="0" y2="1"><stop stop-color="#00C4CC"/><stop offset=".55" stop-color="#2A7FFF"/><stop offset="1" stop-color="#7D5CFF"/></linearGradient>
  <linearGradient id="g2" x1="0" x2="1" y1="0" y2="1"><stop stop-color="#FF6EC7"/><stop offset="1" stop-color="#FFD166"/></linearGradient>
  <linearGradient id="g3" x1="0" x2="1" y1="0" y2="1"><stop stop-color="#7CE7C7"/><stop offset="1" stop-color="#00C4CC"/></linearGradient>
  <filter id="s" x="-20%" y="-20%" width="140%" height="140%"><feDropShadow dx="0" dy="28" stdDeviation="24" flood-color="#26366F" flood-opacity=".18"/></filter>
</defs>
<rect width="900" height="620" rx="48" fill="#F8FBFF"/>
<circle cx="170" cy="110" r="150" fill="#D9FBFF"/>
<circle cx="760" cy="160" r="170" fill="#EEE0FF"/>
<circle cx="650" cy="520" r="145" fill="#E8FFF5"/>
<g filter="url(#s)">
  <rect x="126" y="92" width="648" height="392" rx="42" fill="white"/>
  <rect x="154" y="130" width="592" height="320" rx="32" fill="#F4F7FF"/>
  <rect x="184" y="162" width="86" height="256" rx="28" fill="#EAF0FF"/>
  <rect x="304" y="160" width="384" height="258" rx="34" fill="url(#g1)"/>
  <circle cx="640" cy="206" r="64" fill="white" opacity=".18"/>
  <path d="M334 335 C430 250 487 372 566 285 C615 230 662 278 681 243" fill="none" stroke="white" stroke-width="18" stroke-linecap="round" opacity=".36"/>
  <text x="338" y="228" font-size="34" font-family="Arial, sans-serif" font-weight="800" fill="white">AI TEMPLATE</text>
  <text x="338" y="300" font-size="62" font-family="Arial, sans-serif" font-weight="900" fill="white">3 MIN</text>
  <text x="338" y="352" font-size="40" font-family="Arial, sans-serif" font-weight="800" fill="white">SOCIAL COVER</text>
  <rect x="206" y="196" width="42" height="42" rx="14" fill="#A9F2F4"/>
  <rect x="206" y="262" width="42" height="42" rx="14" fill="#C6C7FF"/>
  <rect x="206" y="328" width="42" height="42" rx="14" fill="#FFD6EE"/>
</g>
<g filter="url(#s)">
  <rect x="88" y="398" width="210" height="140" rx="34" fill="url(#g2)"/>
  <text x="116" y="458" font-size="30" font-family="Arial, sans-serif" font-weight="900" fill="white">Poster</text>
  <text x="116" y="495" font-size="22" font-family="Arial, sans-serif" font-weight="700" fill="white" opacity=".9">Moodboard</text>
</g>
<g filter="url(#s)">
  <rect x="622" y="382" width="190" height="150" rx="34" fill="url(#g3)"/>
  <circle cx="690" cy="438" r="34" fill="white" opacity=".32"/>
  <rect x="670" y="484" width="96" height="14" rx="7" fill="white" opacity=".7"/>
</g>
<circle cx="98" cy="162" r="20" fill="#00C4CC"/><circle cx="790" cy="88" r="16" fill="#7D5CFF"/><circle cx="820" cy="315" r="12" fill="#FF6EC7"/>
</svg>