<svg xmlns="http://www.w3.org/2000/svg" width="1000" height="680" viewBox="0 0 1000 680">
<defs>
<linearGradient id="a" x1="0" x2="1" y1="0" y2="1"><stop stop-color="#1E293B"/><stop offset="1" stop-color="#111827"/></linearGradient>
<linearGradient id="b" x1="0" x2="1" y1="0" y2="1"><stop stop-color="#00C4CC"/><stop offset="1" stop-color="#7D5CFF"/></linearGradient>
<linearGradient id="c" x1="0" x2="1" y1="0" y2="1"><stop stop-color="#FF6B6B"/><stop offset="1" stop-color="#FFD166"/></linearGradient>
<filter id="s"><feDropShadow dx="0" dy="30" stdDeviation="24" flood-color="#26366f" flood-opacity=".2"/></filter>
</defs>
<rect width="1000" height="680" rx="60" fill="#F8FAFF"/>
<circle cx="170" cy="130" r="120" fill="#D9FBFF"/>
<circle cx="820" cy="130" r="150" fill="#EEE0FF"/>
<rect x="130" y="460" width="740" height="54" rx="27" fill="#DAE6FF"/>
<g filter="url(#s)">
  <rect x="160" y="120" width="480" height="330" rx="46" fill="url(#a)"/>
  <rect x="195" y="160" width="410" height="236" rx="28" fill="url(#b)"/>
  <text x="240" y="230" font-family="Arial" font-weight="900" font-size="34" fill="#fff">DEADLINE 20:00</text>
  <text x="240" y="310" font-family="Arial" font-weight="900" font-size="54" fill="#fff">封面未完成</text>
  <rect x="240" y="344" width="230" height="22" rx="11" fill="#fff" opacity=".42"/>
</g>
<g filter="url(#s)" transform="rotate(-8 720 235)">
  <rect x="668" y="175" width="205" height="150" rx="30" fill="#FFF4D6"/>
  <text x="705" y="245" font-family="Arial" font-weight="900" font-size="34" fill="#F59E0B">灵感值</text>
  <text x="720" y="295" font-family="Arial" font-weight="900" font-size="48" fill="#EF4444">0%</text>
</g>
<g filter="url(#s)">
<circle cx="725" cy="432" r="74" fill="#fff"/><circle cx="725" cy="432" r="43" fill="#8B5E34"/><circle cx="725" cy="432" r="28" fill="#6B3F24"/>
</g>
<rect x="280" y="538" width="300" height="16" rx="8" fill="url(#c)" transform="rotate(-12 280 538)"/>
</svg>